<mxfile host="app.diagrams.net" agent="Mozilla/5.0 (Windows NT 10.0; Win64; x64) AppleWebKit/537.36 (KHTML, like Gecko) Chrome/129.0.0.0 Safari/537.36 Edg/129.0.0.0" version="25.0.1">
  <diagram name="1 oldal" id="qz7UweRk5b-92wpc-X8h">
    <mxGraphModel grid="1" page="1" gridSize="10" guides="1" tooltips="1" connect="1" arrows="1" fold="1" pageScale="1" pageWidth="827" pageHeight="1169" math="0" shadow="0">
      <root>
        <mxCell id="0" />
        <mxCell id="1" parent="0" />
        <mxCell id="lvH4Qcz0tzDwEfxN7UWa-15" value="" style="edgeStyle=orthogonalEdgeStyle;rounded=0;orthogonalLoop=1;jettySize=auto;html=1;exitX=0.5;exitY=1;exitDx=0;exitDy=0;entryX=0.5;entryY=0;entryDx=0;entryDy=0;" edge="1" parent="1" source="lvH4Qcz0tzDwEfxN7UWa-14" target="lvH4Qcz0tzDwEfxN7UWa-1">
          <mxGeometry relative="1" as="geometry">
            <mxPoint x="440" y="220" as="targetPoint" />
            <Array as="points">
              <mxPoint x="410" y="210" />
              <mxPoint x="410" y="210" />
            </Array>
          </mxGeometry>
        </mxCell>
        <mxCell id="lvH4Qcz0tzDwEfxN7UWa-1" value="Könyvesbolt" style="rounded=0;whiteSpace=wrap;html=1;fillColor=#fff2cc;strokeColor=#d6b656;gradientColor=#FFFFFF;" vertex="1" parent="1">
          <mxGeometry x="350" y="250" width="120" height="60" as="geometry" />
        </mxCell>
        <mxCell id="lvH4Qcz0tzDwEfxN7UWa-5" value="" style="edgeStyle=orthogonalEdgeStyle;rounded=0;orthogonalLoop=1;jettySize=auto;html=1;" edge="1" parent="1" source="lvH4Qcz0tzDwEfxN7UWa-2" target="lvH4Qcz0tzDwEfxN7UWa-4">
          <mxGeometry relative="1" as="geometry" />
        </mxCell>
        <mxCell id="lvH4Qcz0tzDwEfxN7UWa-28" style="edgeStyle=orthogonalEdgeStyle;rounded=0;orthogonalLoop=1;jettySize=auto;html=1;" edge="1" parent="1" source="lvH4Qcz0tzDwEfxN7UWa-2" target="lvH4Qcz0tzDwEfxN7UWa-1">
          <mxGeometry relative="1" as="geometry" />
        </mxCell>
        <mxCell id="lvH4Qcz0tzDwEfxN7UWa-29" style="edgeStyle=orthogonalEdgeStyle;rounded=0;orthogonalLoop=1;jettySize=auto;html=1;" edge="1" parent="1" source="lvH4Qcz0tzDwEfxN7UWa-2">
          <mxGeometry relative="1" as="geometry">
            <mxPoint x="410" y="330" as="targetPoint" />
          </mxGeometry>
        </mxCell>
        <mxCell id="lvH4Qcz0tzDwEfxN7UWa-30" style="edgeStyle=orthogonalEdgeStyle;rounded=0;orthogonalLoop=1;jettySize=auto;html=1;" edge="1" parent="1" source="lvH4Qcz0tzDwEfxN7UWa-2">
          <mxGeometry relative="1" as="geometry">
            <mxPoint x="410" y="530.0000000000001" as="targetPoint" />
          </mxGeometry>
        </mxCell>
        <mxCell id="lvH4Qcz0tzDwEfxN7UWa-2" value="Elhelyezkedés" style="rhombus;whiteSpace=wrap;html=1;rounded=0;" vertex="1" parent="1">
          <mxGeometry x="365" y="390" width="90" height="80" as="geometry" />
        </mxCell>
        <mxCell id="lvH4Qcz0tzDwEfxN7UWa-4" value="Cím" style="whiteSpace=wrap;html=1;rounded=0;fillColor=#fff2cc;strokeColor=#d6b656;gradientColor=#FFFFFF;" vertex="1" parent="1">
          <mxGeometry x="350" y="550" width="120" height="60" as="geometry" />
        </mxCell>
        <mxCell id="lvH4Qcz0tzDwEfxN7UWa-25" style="edgeStyle=orthogonalEdgeStyle;rounded=0;orthogonalLoop=1;jettySize=auto;html=1;entryX=1;entryY=0.5;entryDx=0;entryDy=0;" edge="1" parent="1" source="lvH4Qcz0tzDwEfxN7UWa-6" target="lvH4Qcz0tzDwEfxN7UWa-1">
          <mxGeometry relative="1" as="geometry" />
        </mxCell>
        <mxCell id="lvH4Qcz0tzDwEfxN7UWa-26" style="edgeStyle=orthogonalEdgeStyle;rounded=0;orthogonalLoop=1;jettySize=auto;html=1;entryX=0;entryY=0.5;entryDx=0;entryDy=0;" edge="1" parent="1" source="lvH4Qcz0tzDwEfxN7UWa-6" target="lvH4Qcz0tzDwEfxN7UWa-8">
          <mxGeometry relative="1" as="geometry" />
        </mxCell>
        <mxCell id="lvH4Qcz0tzDwEfxN7UWa-31" style="edgeStyle=orthogonalEdgeStyle;rounded=0;orthogonalLoop=1;jettySize=auto;html=1;" edge="1" parent="1" source="lvH4Qcz0tzDwEfxN7UWa-6">
          <mxGeometry relative="1" as="geometry">
            <mxPoint x="490" y="280" as="targetPoint" />
          </mxGeometry>
        </mxCell>
        <mxCell id="lvH4Qcz0tzDwEfxN7UWa-6" value="Dolgozik" style="rhombus;whiteSpace=wrap;html=1;rounded=0;" vertex="1" parent="1">
          <mxGeometry x="570" y="240" width="80" height="80" as="geometry" />
        </mxCell>
        <mxCell id="lvH4Qcz0tzDwEfxN7UWa-8" value="Eladó" style="whiteSpace=wrap;html=1;rounded=0;fillColor=#fff2cc;strokeColor=#d6b656;gradientColor=#FFFFFF;" vertex="1" parent="1">
          <mxGeometry x="750" y="250" width="120" height="60" as="geometry" />
        </mxCell>
        <mxCell id="lvH4Qcz0tzDwEfxN7UWa-13" value="" style="edgeStyle=orthogonalEdgeStyle;rounded=0;orthogonalLoop=1;jettySize=auto;html=1;" edge="1" parent="1" source="lvH4Qcz0tzDwEfxN7UWa-10" target="lvH4Qcz0tzDwEfxN7UWa-12">
          <mxGeometry relative="1" as="geometry" />
        </mxCell>
        <mxCell id="lvH4Qcz0tzDwEfxN7UWa-27" style="edgeStyle=orthogonalEdgeStyle;rounded=0;orthogonalLoop=1;jettySize=auto;html=1;" edge="1" parent="1" source="lvH4Qcz0tzDwEfxN7UWa-10" target="lvH4Qcz0tzDwEfxN7UWa-8">
          <mxGeometry relative="1" as="geometry" />
        </mxCell>
        <mxCell id="lvH4Qcz0tzDwEfxN7UWa-10" value="Vásárlás" style="rhombus;whiteSpace=wrap;html=1;rounded=0;" vertex="1" parent="1">
          <mxGeometry x="770" y="380" width="80" height="80" as="geometry" />
        </mxCell>
        <mxCell id="lvH4Qcz0tzDwEfxN7UWa-12" value="Vásárló" style="whiteSpace=wrap;html=1;rounded=0;fillColor=#fff2cc;strokeColor=#d6b656;gradientColor=#FFFFFF;" vertex="1" parent="1">
          <mxGeometry x="750" y="550" width="120" height="60" as="geometry" />
        </mxCell>
        <mxCell id="lvH4Qcz0tzDwEfxN7UWa-17" value="" style="edgeStyle=orthogonalEdgeStyle;rounded=0;orthogonalLoop=1;jettySize=auto;html=1;" edge="1" parent="1" source="lvH4Qcz0tzDwEfxN7UWa-14" target="lvH4Qcz0tzDwEfxN7UWa-16">
          <mxGeometry relative="1" as="geometry" />
        </mxCell>
        <mxCell id="lvH4Qcz0tzDwEfxN7UWa-14" value="Termék" style="rhombus;whiteSpace=wrap;html=1;rounded=0;" vertex="1" parent="1">
          <mxGeometry x="370" y="80" width="80" height="80" as="geometry" />
        </mxCell>
        <mxCell id="lvH4Qcz0tzDwEfxN7UWa-16" value="Könyvek" style="whiteSpace=wrap;html=1;rounded=0;fillColor=#FFF2CC;strokeColor=#d6b656;gradientColor=#FFFFFF;" vertex="1" parent="1">
          <mxGeometry x="190" y="90" width="120" height="60" as="geometry" />
        </mxCell>
        <mxCell id="lvH4Qcz0tzDwEfxN7UWa-18" value="" style="endArrow=none;html=1;rounded=0;exitX=0.5;exitY=1;exitDx=0;exitDy=0;entryX=0.5;entryY=0;entryDx=0;entryDy=0;" edge="1" parent="1" source="lvH4Qcz0tzDwEfxN7UWa-20" target="lvH4Qcz0tzDwEfxN7UWa-16">
          <mxGeometry width="50" height="50" relative="1" as="geometry">
            <mxPoint x="120" y="140" as="sourcePoint" />
            <mxPoint x="180" y="140" as="targetPoint" />
          </mxGeometry>
        </mxCell>
        <mxCell id="lvH4Qcz0tzDwEfxN7UWa-19" value="" style="endArrow=none;html=1;rounded=0;exitX=0.5;exitY=1;exitDx=0;exitDy=0;entryX=0.5;entryY=0;entryDx=0;entryDy=0;" edge="1" parent="1" source="lvH4Qcz0tzDwEfxN7UWa-21" target="lvH4Qcz0tzDwEfxN7UWa-16">
          <mxGeometry width="50" height="50" relative="1" as="geometry">
            <mxPoint x="120" y="200" as="sourcePoint" />
            <mxPoint x="250" y="110" as="targetPoint" />
          </mxGeometry>
        </mxCell>
        <mxCell id="lvH4Qcz0tzDwEfxN7UWa-20" value="&lt;u&gt;Kkód&lt;/u&gt;" style="ellipse;whiteSpace=wrap;html=1;" vertex="1" parent="1">
          <mxGeometry x="250" width="80" height="40" as="geometry" />
        </mxCell>
        <mxCell id="lvH4Qcz0tzDwEfxN7UWa-21" value="Cím" style="ellipse;whiteSpace=wrap;html=1;" vertex="1" parent="1">
          <mxGeometry x="150" width="80" height="40" as="geometry" />
        </mxCell>
        <mxCell id="lvH4Qcz0tzDwEfxN7UWa-22" value="Szerző" style="ellipse;whiteSpace=wrap;html=1;" vertex="1" parent="1">
          <mxGeometry x="350" width="80" height="40" as="geometry" />
        </mxCell>
        <mxCell id="lvH4Qcz0tzDwEfxN7UWa-23" value="" style="endArrow=none;html=1;rounded=0;exitX=0.5;exitY=1;exitDx=0;exitDy=0;entryX=0.5;entryY=0;entryDx=0;entryDy=0;" edge="1" parent="1" source="lvH4Qcz0tzDwEfxN7UWa-22" target="lvH4Qcz0tzDwEfxN7UWa-16">
          <mxGeometry width="50" height="50" relative="1" as="geometry">
            <mxPoint x="120" y="117.5" as="sourcePoint" />
            <mxPoint x="190" y="140" as="targetPoint" />
          </mxGeometry>
        </mxCell>
        <mxCell id="lvH4Qcz0tzDwEfxN7UWa-24" value="" style="endArrow=classic;html=1;rounded=0;exitX=0;exitY=0.5;exitDx=0;exitDy=0;" edge="1" parent="1" source="lvH4Qcz0tzDwEfxN7UWa-14">
          <mxGeometry width="50" height="50" relative="1" as="geometry">
            <mxPoint x="320" y="170" as="sourcePoint" />
            <mxPoint x="330" y="120" as="targetPoint" />
          </mxGeometry>
        </mxCell>
        <mxCell id="lvH4Qcz0tzDwEfxN7UWa-33" value="" style="endArrow=none;html=1;rounded=0;exitX=0.5;exitY=1;exitDx=0;exitDy=0;entryX=0.5;entryY=0;entryDx=0;entryDy=0;" edge="1" parent="1" source="lvH4Qcz0tzDwEfxN7UWa-34" target="lvH4Qcz0tzDwEfxN7UWa-16">
          <mxGeometry width="50" height="50" relative="1" as="geometry">
            <mxPoint x="150" y="230" as="sourcePoint" />
            <mxPoint x="189" y="140" as="targetPoint" />
          </mxGeometry>
        </mxCell>
        <mxCell id="lvH4Qcz0tzDwEfxN7UWa-34" value="Nyelv" style="ellipse;whiteSpace=wrap;html=1;" vertex="1" parent="1">
          <mxGeometry x="50" width="80" height="40" as="geometry" />
        </mxCell>
        <mxCell id="lvH4Qcz0tzDwEfxN7UWa-35" value="" style="endArrow=none;html=1;rounded=0;entryX=0.5;entryY=1;entryDx=0;entryDy=0;exitX=0.5;exitY=0;exitDx=0;exitDy=0;" edge="1" parent="1" source="lvH4Qcz0tzDwEfxN7UWa-37" target="lvH4Qcz0tzDwEfxN7UWa-4">
          <mxGeometry width="50" height="50" relative="1" as="geometry">
            <mxPoint x="350" y="680" as="sourcePoint" />
            <mxPoint x="400" y="630" as="targetPoint" />
          </mxGeometry>
        </mxCell>
        <mxCell id="lvH4Qcz0tzDwEfxN7UWa-37" value="&lt;u&gt;Irányítószám&lt;/u&gt;" style="ellipse;whiteSpace=wrap;html=1;" vertex="1" parent="1">
          <mxGeometry x="240" y="640" width="80" height="40" as="geometry" />
        </mxCell>
        <mxCell id="lvH4Qcz0tzDwEfxN7UWa-38" value="Kezdés éve" style="ellipse;whiteSpace=wrap;html=1;" vertex="1" parent="1">
          <mxGeometry x="800" y="160" width="80" height="40" as="geometry" />
        </mxCell>
        <mxCell id="lvH4Qcz0tzDwEfxN7UWa-39" value="Név" style="ellipse;whiteSpace=wrap;html=1;" vertex="1" parent="1">
          <mxGeometry x="620" y="160" width="80" height="40" as="geometry" />
        </mxCell>
        <mxCell id="lvH4Qcz0tzDwEfxN7UWa-40" value="Beosztás" style="ellipse;whiteSpace=wrap;html=1;" vertex="1" parent="1">
          <mxGeometry x="710" y="160" width="80" height="40" as="geometry" />
        </mxCell>
        <mxCell id="lvH4Qcz0tzDwEfxN7UWa-41" value="Mtszáma" style="ellipse;whiteSpace=wrap;html=1;" vertex="1" parent="1">
          <mxGeometry x="210" y="330" width="80" height="40" as="geometry" />
        </mxCell>
        <mxCell id="lvH4Qcz0tzDwEfxN7UWa-42" value="Fizlehetőség" style="ellipse;whiteSpace=wrap;html=1;" vertex="1" parent="1">
          <mxGeometry x="210" y="280" width="80" height="40" as="geometry" />
        </mxCell>
        <mxCell id="lvH4Qcz0tzDwEfxN7UWa-43" value="Kbnév" style="ellipse;whiteSpace=wrap;html=1;" vertex="1" parent="1">
          <mxGeometry x="210" y="230" width="80" height="40" as="geometry" />
        </mxCell>
        <mxCell id="lvH4Qcz0tzDwEfxN7UWa-44" value="&lt;u&gt;Kbkód&lt;/u&gt;" style="ellipse;whiteSpace=wrap;html=1;" vertex="1" parent="1">
          <mxGeometry x="210" y="180" width="80" height="40" as="geometry" />
        </mxCell>
        <mxCell id="lvH4Qcz0tzDwEfxN7UWa-45" value="Utca" style="ellipse;whiteSpace=wrap;html=1;" vertex="1" parent="1">
          <mxGeometry x="420" y="640" width="80" height="40" as="geometry" />
        </mxCell>
        <mxCell id="lvH4Qcz0tzDwEfxN7UWa-46" value="Házszám" style="ellipse;whiteSpace=wrap;html=1;" vertex="1" parent="1">
          <mxGeometry x="510" y="640" width="80" height="40" as="geometry" />
        </mxCell>
        <mxCell id="lvH4Qcz0tzDwEfxN7UWa-47" value="Város" style="ellipse;whiteSpace=wrap;html=1;" vertex="1" parent="1">
          <mxGeometry x="330" y="640" width="80" height="40" as="geometry" />
        </mxCell>
        <mxCell id="lvH4Qcz0tzDwEfxN7UWa-48" value="" style="endArrow=none;html=1;rounded=0;exitX=0.5;exitY=0;exitDx=0;exitDy=0;" edge="1" parent="1" source="lvH4Qcz0tzDwEfxN7UWa-47">
          <mxGeometry width="50" height="50" relative="1" as="geometry">
            <mxPoint x="360" y="670" as="sourcePoint" />
            <mxPoint x="410" y="610" as="targetPoint" />
          </mxGeometry>
        </mxCell>
        <mxCell id="lvH4Qcz0tzDwEfxN7UWa-49" value="" style="endArrow=none;html=1;rounded=0;entryX=0.5;entryY=1;entryDx=0;entryDy=0;exitX=0.5;exitY=0;exitDx=0;exitDy=0;" edge="1" parent="1" source="lvH4Qcz0tzDwEfxN7UWa-46" target="lvH4Qcz0tzDwEfxN7UWa-4">
          <mxGeometry width="50" height="50" relative="1" as="geometry">
            <mxPoint x="440" y="670" as="sourcePoint" />
            <mxPoint x="490" y="620" as="targetPoint" />
          </mxGeometry>
        </mxCell>
        <mxCell id="lvH4Qcz0tzDwEfxN7UWa-50" value="" style="endArrow=none;html=1;rounded=0;entryX=0.5;entryY=1;entryDx=0;entryDy=0;exitX=0.5;exitY=0;exitDx=0;exitDy=0;" edge="1" parent="1" source="lvH4Qcz0tzDwEfxN7UWa-45" target="lvH4Qcz0tzDwEfxN7UWa-4">
          <mxGeometry width="50" height="50" relative="1" as="geometry">
            <mxPoint x="370" y="670" as="sourcePoint" />
            <mxPoint x="420" y="620" as="targetPoint" />
          </mxGeometry>
        </mxCell>
        <mxCell id="lvH4Qcz0tzDwEfxN7UWa-51" value="" style="endArrow=none;html=1;rounded=0;entryX=0;entryY=0.5;entryDx=0;entryDy=0;exitX=1;exitY=0.5;exitDx=0;exitDy=0;" edge="1" parent="1" source="lvH4Qcz0tzDwEfxN7UWa-44" target="lvH4Qcz0tzDwEfxN7UWa-1">
          <mxGeometry width="50" height="50" relative="1" as="geometry">
            <mxPoint x="290" y="270" as="sourcePoint" />
            <mxPoint x="340" y="220" as="targetPoint" />
          </mxGeometry>
        </mxCell>
        <mxCell id="lvH4Qcz0tzDwEfxN7UWa-52" value="" style="endArrow=none;html=1;rounded=0;exitX=0.5;exitY=1;exitDx=0;exitDy=0;entryX=0.5;entryY=0;entryDx=0;entryDy=0;" edge="1" parent="1" source="lvH4Qcz0tzDwEfxN7UWa-39" target="lvH4Qcz0tzDwEfxN7UWa-8">
          <mxGeometry width="50" height="50" relative="1" as="geometry">
            <mxPoint x="690" y="250" as="sourcePoint" />
            <mxPoint x="740" y="200" as="targetPoint" />
          </mxGeometry>
        </mxCell>
        <mxCell id="lvH4Qcz0tzDwEfxN7UWa-53" value="" style="endArrow=none;html=1;rounded=0;entryX=0;entryY=0.5;entryDx=0;entryDy=0;exitX=1;exitY=0.5;exitDx=0;exitDy=0;" edge="1" parent="1" source="lvH4Qcz0tzDwEfxN7UWa-41" target="lvH4Qcz0tzDwEfxN7UWa-1">
          <mxGeometry width="50" height="50" relative="1" as="geometry">
            <mxPoint x="310" y="370" as="sourcePoint" />
            <mxPoint x="360" y="320" as="targetPoint" />
          </mxGeometry>
        </mxCell>
        <mxCell id="lvH4Qcz0tzDwEfxN7UWa-54" value="" style="endArrow=none;html=1;rounded=0;entryX=0;entryY=0.5;entryDx=0;entryDy=0;exitX=1;exitY=0.5;exitDx=0;exitDy=0;" edge="1" parent="1" source="lvH4Qcz0tzDwEfxN7UWa-42" target="lvH4Qcz0tzDwEfxN7UWa-1">
          <mxGeometry width="50" height="50" relative="1" as="geometry">
            <mxPoint x="280" y="330" as="sourcePoint" />
            <mxPoint x="330" y="280" as="targetPoint" />
          </mxGeometry>
        </mxCell>
        <mxCell id="lvH4Qcz0tzDwEfxN7UWa-55" value="" style="endArrow=none;html=1;rounded=0;entryX=1;entryY=0.5;entryDx=0;entryDy=0;exitX=0;exitY=0.5;exitDx=0;exitDy=0;" edge="1" parent="1" source="lvH4Qcz0tzDwEfxN7UWa-1" target="lvH4Qcz0tzDwEfxN7UWa-43">
          <mxGeometry width="50" height="50" relative="1" as="geometry">
            <mxPoint x="280" y="300" as="sourcePoint" />
            <mxPoint x="330" y="250" as="targetPoint" />
          </mxGeometry>
        </mxCell>
        <mxCell id="lvH4Qcz0tzDwEfxN7UWa-56" value="&lt;u&gt;Szig szám&lt;/u&gt;" style="ellipse;whiteSpace=wrap;html=1;" vertex="1" parent="1">
          <mxGeometry x="890" y="160" width="80" height="40" as="geometry" />
        </mxCell>
        <mxCell id="lvH4Qcz0tzDwEfxN7UWa-57" value="Kedvelt műfaj" style="ellipse;whiteSpace=wrap;html=1;" vertex="1" parent="1">
          <mxGeometry x="910" y="640" width="80" height="40" as="geometry" />
        </mxCell>
        <mxCell id="lvH4Qcz0tzDwEfxN7UWa-58" value="Ország" style="ellipse;whiteSpace=wrap;html=1;" vertex="1" parent="1">
          <mxGeometry x="490" y="380" width="80" height="40" as="geometry" />
        </mxCell>
        <mxCell id="lvH4Qcz0tzDwEfxN7UWa-59" value="Szig szám" style="ellipse;whiteSpace=wrap;html=1;" vertex="1" parent="1">
          <mxGeometry x="820" y="640" width="80" height="40" as="geometry" />
        </mxCell>
        <mxCell id="lvH4Qcz0tzDwEfxN7UWa-60" value="Kor" style="ellipse;whiteSpace=wrap;html=1;" vertex="1" parent="1">
          <mxGeometry x="730" y="640" width="80" height="40" as="geometry" />
        </mxCell>
        <mxCell id="lvH4Qcz0tzDwEfxN7UWa-61" value="Név" style="ellipse;whiteSpace=wrap;html=1;" vertex="1" parent="1">
          <mxGeometry x="640" y="640" width="80" height="40" as="geometry" />
        </mxCell>
        <mxCell id="lvH4Qcz0tzDwEfxN7UWa-62" value="" style="endArrow=none;html=1;rounded=0;entryX=0.5;entryY=1;entryDx=0;entryDy=0;exitX=0.5;exitY=0;exitDx=0;exitDy=0;" edge="1" parent="1" source="lvH4Qcz0tzDwEfxN7UWa-61" target="lvH4Qcz0tzDwEfxN7UWa-12">
          <mxGeometry width="50" height="50" relative="1" as="geometry">
            <mxPoint x="680" y="635" as="sourcePoint" />
            <mxPoint x="730" y="585" as="targetPoint" />
          </mxGeometry>
        </mxCell>
        <mxCell id="lvH4Qcz0tzDwEfxN7UWa-63" value="" style="endArrow=none;html=1;rounded=0;entryX=0.5;entryY=1;entryDx=0;entryDy=0;exitX=0.5;exitY=0;exitDx=0;exitDy=0;" edge="1" parent="1" source="lvH4Qcz0tzDwEfxN7UWa-8" target="lvH4Qcz0tzDwEfxN7UWa-56">
          <mxGeometry width="50" height="50" relative="1" as="geometry">
            <mxPoint x="840" y="260" as="sourcePoint" />
            <mxPoint x="890" y="210" as="targetPoint" />
          </mxGeometry>
        </mxCell>
        <mxCell id="lvH4Qcz0tzDwEfxN7UWa-64" value="" style="endArrow=none;html=1;rounded=0;" edge="1" parent="1">
          <mxGeometry width="50" height="50" relative="1" as="geometry">
            <mxPoint x="760" y="260" as="sourcePoint" />
            <mxPoint x="760" y="260" as="targetPoint" />
          </mxGeometry>
        </mxCell>
        <mxCell id="lvH4Qcz0tzDwEfxN7UWa-65" value="" style="endArrow=none;html=1;rounded=0;entryX=0.5;entryY=1;entryDx=0;entryDy=0;" edge="1" parent="1" target="lvH4Qcz0tzDwEfxN7UWa-38">
          <mxGeometry width="50" height="50" relative="1" as="geometry">
            <mxPoint x="810" y="250" as="sourcePoint" />
            <mxPoint x="850" y="200" as="targetPoint" />
          </mxGeometry>
        </mxCell>
        <mxCell id="lvH4Qcz0tzDwEfxN7UWa-66" value="" style="endArrow=none;html=1;rounded=0;entryX=0.5;entryY=1;entryDx=0;entryDy=0;exitX=0.5;exitY=0;exitDx=0;exitDy=0;" edge="1" parent="1" source="lvH4Qcz0tzDwEfxN7UWa-8" target="lvH4Qcz0tzDwEfxN7UWa-40">
          <mxGeometry width="50" height="50" relative="1" as="geometry">
            <mxPoint x="760" y="250" as="sourcePoint" />
            <mxPoint x="810" y="200" as="targetPoint" />
          </mxGeometry>
        </mxCell>
        <mxCell id="lvH4Qcz0tzDwEfxN7UWa-67" value="" style="endArrow=none;html=1;rounded=0;entryX=0.5;entryY=1;entryDx=0;entryDy=0;exitX=0.5;exitY=0;exitDx=0;exitDy=0;" edge="1" parent="1" source="lvH4Qcz0tzDwEfxN7UWa-57" target="lvH4Qcz0tzDwEfxN7UWa-12">
          <mxGeometry width="50" height="50" relative="1" as="geometry">
            <mxPoint x="570" y="570" as="sourcePoint" />
            <mxPoint x="620" y="520" as="targetPoint" />
          </mxGeometry>
        </mxCell>
        <mxCell id="lvH4Qcz0tzDwEfxN7UWa-68" value="" style="endArrow=none;html=1;rounded=0;entryX=0.5;entryY=1;entryDx=0;entryDy=0;exitX=0.5;exitY=0;exitDx=0;exitDy=0;" edge="1" parent="1" source="lvH4Qcz0tzDwEfxN7UWa-59" target="lvH4Qcz0tzDwEfxN7UWa-12">
          <mxGeometry width="50" height="50" relative="1" as="geometry">
            <mxPoint x="570" y="570" as="sourcePoint" />
            <mxPoint x="620" y="520" as="targetPoint" />
          </mxGeometry>
        </mxCell>
        <mxCell id="lvH4Qcz0tzDwEfxN7UWa-69" value="" style="endArrow=none;html=1;rounded=0;entryX=0.5;entryY=1;entryDx=0;entryDy=0;exitX=0.5;exitY=0;exitDx=0;exitDy=0;" edge="1" parent="1" source="lvH4Qcz0tzDwEfxN7UWa-60" target="lvH4Qcz0tzDwEfxN7UWa-12">
          <mxGeometry width="50" height="50" relative="1" as="geometry">
            <mxPoint x="777" y="660" as="sourcePoint" />
            <mxPoint x="827" y="610" as="targetPoint" />
          </mxGeometry>
        </mxCell>
        <mxCell id="lvH4Qcz0tzDwEfxN7UWa-72" value="" style="endArrow=none;html=1;rounded=0;exitX=1;exitY=0.5;exitDx=0;exitDy=0;entryX=0;entryY=0.5;entryDx=0;entryDy=0;" edge="1" parent="1" source="lvH4Qcz0tzDwEfxN7UWa-2" target="lvH4Qcz0tzDwEfxN7UWa-74">
          <mxGeometry width="50" height="50" relative="1" as="geometry">
            <mxPoint x="590" y="470" as="sourcePoint" />
            <mxPoint x="530" y="420" as="targetPoint" />
          </mxGeometry>
        </mxCell>
        <mxCell id="lvH4Qcz0tzDwEfxN7UWa-73" value="" style="endArrow=none;html=1;rounded=0;exitX=1;exitY=0.5;exitDx=0;exitDy=0;entryX=0;entryY=0.5;entryDx=0;entryDy=0;" edge="1" parent="1" source="lvH4Qcz0tzDwEfxN7UWa-2" target="lvH4Qcz0tzDwEfxN7UWa-58">
          <mxGeometry width="50" height="50" relative="1" as="geometry">
            <mxPoint x="490" y="420" as="sourcePoint" />
            <mxPoint x="540" y="370" as="targetPoint" />
          </mxGeometry>
        </mxCell>
        <mxCell id="lvH4Qcz0tzDwEfxN7UWa-74" value="Kb száma" style="ellipse;whiteSpace=wrap;html=1;" vertex="1" parent="1">
          <mxGeometry x="490" y="430" width="80" height="40" as="geometry" />
        </mxCell>
      </root>
    </mxGraphModel>
  </diagram>
</mxfile>
